/* XPM */
static char *sujin[] = {
/* columns rows colors chars-per-pixel */
"64 64 252 2 ",
"   c #171A18",
".  c #0C0E0F",
"X  c #391A08",
"o  c #291C17",
"O  c #2C170B",
"+  c #162118",
"@  c #392617",
"#  c #322814",
"$  c #191C26",
"%  c #0C1523",
"&  c #281A2C",
"*  c #1A2225",
"=  c #1A2B38",
"-  c #142934",
";  c #262828",
":  c #372A24",
">  c #383427",
",  c #252D32",
"<  c #342C33",
"1  c #263336",
"2  c #363939",
"3  c #431B0A",
"4  c #4D2D14",
"5  c #773410",
"6  c #573627",
"7  c #48342D",
"8  c #6D3B27",
"9  c #411721",
"0  c #39433A",
"q  c #594738",
"w  c #4E452C",
"e  c #784628",
"r  c #6C4D31",
"t  c #7A6534",
"y  c #6C4917",
"u  c #1A344A",
"i  c #253947",
"p  c #3E3748",
"a  c #493947",
"s  c #374A58",
"d  c #2F4550",
"f  c #354D63",
"g  c #39546A",
"h  c #2C5676",
"j  c #385A79",
"k  c #284A69",
"l  c #39617C",
"z  c #1E455F",
"x  c #49575A",
"c  c #55524F",
"v  c #6E5A4D",
"b  c #6F6552",
"n  c #445B6C",
"m  c #695C6A",
"M  c #47647B",
"N  c #55676B",
"B  c #696666",
"V  c #797777",
"C  c #726E6C",
"Z  c #863B0F",
"A  c #813E22",
"S  c #875C15",
"D  c #995B05",
"F  c #996E1A",
"G  c #A87513",
"H  c #8A4528",
"J  c #954828",
"K  c #864D34",
"L  c #985739",
"P  c #855531",
"I  c #A45836",
"U  c #91702E",
"Y  c #A56E2A",
"T  c #8E5A45",
"R  c #876B57",
"E  c #976A57",
"W  c #917151",
"Q  c #A76B4D",
"!  c #8B7C6D",
"~  c #A57D63",
"^  c #7B8C7D",
"/  c #B98503",
"(  c #BB8616",
")  c #B28C35",
"_  c #988737",
"`  c #CA9309",
"'  c #D79708",
"]  c #C68B18",
"[  c #D79516",
"{  c #CC900E",
"}  c #E49806",
"|  c #E18F00",
" . c #D8A310",
".. c #E7A916",
"X. c #EDB118",
"o. c #C9992A",
"O. c #C79933",
"+. c #D0A82F",
"@. c #EDB62B",
"#. c #FBC938",
"$. c #F8C832",
"%. c #F4C01E",
"&. c #9C9456",
"*. c #AE904D",
"=. c #8A857A",
"-. c #978678",
";. c #929172",
":. c #AD9572",
">. c #AEAB74",
",. c #ACA86C",
"<. c #CBAC4D",
"1. c #CEB66A",
"2. c #D6A757",
"3. c #FACB49",
"4. c #FAD547",
"5. c #FBCC58",
"6. c #FBD959",
"7. c #EDD251",
"8. c #F9E558",
"9. c #F2E457",
"0. c #D4C974",
"q. c #ECD967",
"w. c #F9DB65",
"e. c #EADA79",
"r. c #F6DB75",
"t. c #ECCB66",
"y. c #F7E267",
"u. c #E9E377",
"i. c #F7E378",
"p. c #ECE369",
"a. c #385C88",
"s. c #3A6588",
"d. c #3E6892",
"f. c #306589",
"g. c #456988",
"h. c #46738A",
"j. c #456C95",
"k. c #4A759A",
"l. c #487798",
"z. c #547B9A",
"x. c #5B7284",
"c. c #6E7889",
"v. c #537DA1",
"b. c #4E77A4",
"n. c #505D88",
"m. c #847788",
"M. c #56859B",
"N. c #558395",
"B. c #778C93",
"V. c #718C8F",
"C. c #5887A8",
"Z. c #5D92B3",
"A. c #568CA9",
"S. c #6694AA",
"D. c #6797B8",
"F. c #759BB9",
"G. c #6A8FAC",
"H. c #66A0B4",
"J. c #6B9AC3",
"K. c #799BC5",
"L. c #79A3C9",
"P. c #888A89",
"I. c #938786",
"U. c #98978A",
"Y. c #989998",
"T. c #8C9693",
"R. c #A69888",
"E. c #A69D99",
"W. c #AF9785",
"Q. c #9AA590",
"!. c #A6A78A",
"~. c #A7A39A",
"^. c #B6A699",
"/. c #B1B48E",
"(. c #989BA8",
"). c #839BB9",
"_. c #A699A4",
"`. c #9EA5A8",
"'. c #9DA8B1",
"]. c #A7A7A6",
"[. c #B6ABA7",
"{. c #B5B3AB",
"}. c #AAA9B4",
"|. c #B7B7B8",
" X c #AFB0B4",
".X c #C7B395",
"XX c #C5B6A4",
"oX c #C4BDB8",
"OX c #CFB7A9",
"+X c #C79983",
"@X c #BDC2B8",
"#X c #B5C18A",
"$X c #DAD889",
"%X c #CFCE8F",
"&X c #E9DB87",
"*X c #F3DC88",
"=X c #E8DA96",
"-X c #F2DA95",
";X c #E7CB89",
":X c #F5E596",
">X c #EDE590",
",X c #D8CAB8",
"<X c #CDCCB0",
"1X c #E9D8A6",
"2X c #EBCEB8",
"3X c #F6E7A8",
"4X c #F8E7B6",
"5X c #FEF4B8",
"6X c #E8E4A3",
"7X c #D9E299",
"8X c #B2B8C3",
"9X c #82A1CD",
"0X c #C4BDC8",
"qX c #BDC5C9",
"wX c #C8C7C7",
"eX c #D6D6C8",
"rX c #CBCED2",
"tX c #D4D3D3",
"yX c #DBDBDC",
"uX c #D8D7D8",
"iX c #D2CCD2",
"pX c #E7DAD7",
"aX c #E9D7CA",
"sX c #FEF5C7",
"dX c #E8E5DC",
"fX c #F5E6D8",
"gX c #FEFCDC",
"hX c #FDF3D8",
"jX c #EFE7C8",
"kX c #D7D8E3",
"lX c #E7DCEC",
"zX c #DAE2E3",
"xX c #E4E4E4",
"cX c #ECEBEB",
"vX c #E9E8E8",
"bX c #F5EDEA",
"nX c #FFFDE5",
"mX c #FDF4EC",
"MX c #FEFEEC",
"NX c #F6F5E8",
"BX c #E9EBF3",
"VX c #F6ECF7",
"CX c #EEF3F5",
"ZX c #F4F4F4",
"AX c #FBF5F3",
"SX c #F5FCF3",
"DX c #FEFDF4",
"FX c #FDF5FD",
"GX c #F5FCFD",
"HX c #FEFEFE",
"JX c #F5F6FA",
"KX c #EBF2E7",
/* pixels */
"HXHXHXHXHXHXHXHXHXHXHXHXHXHXHXHXHXDXMXnXSXSXGXGXHXHXHXHXHXHXFXFXFXFXFXDXDXDXDXDXHXAXAXHXFXFXFXHXHXHXHXHXHXHXJXHXHXHXHXHXHXHXHXHX",
"HXHXHXHXHXHXHXHXHXHXHXHXHXHXHXHXHXDXDXDXDXDXHXHXFXHXDXnXnXDXDXmXnXhXhXhXgXnXMXDXbXHXHXFXFXHXHXZXFXHXHXHXHXHXHXHXHXHXHXHXHXHXHXHX",
"HXHXHXHXHXHXHXHXHXHXHXHXHXHXHXHXDXGXHXHXHXHXHXHXDXnXgXsX5X5X5X3X-X-X>X6X6X7XeXjXbXkXkXlXFXFXHXHXHXHXHXJXHXHXHXHXHXHXHXHXHXHXHXHX",
"HXHXHXHXHXHXHXHXHXHXHXHXHXHXHXHXGXGXHXHXHXHXHXDXgXsX5X3X>Xi.i.q.q.r.u.u.>X7X%X@X[.8X}.}.8XiXvXZXHXHXHXFXHXHXHXHXHXHXHXHXHXHXHXHX",
"HXHXHXHXHXHXHXHXHXHXHXHXHXHXHXHXDXGXHXHXFXHXMXsX5X:X*X*Xr.q.y.8.8.8.y.i.>X6X#X~.U.V C T.`.}.8XzXZXHXHXHXHXHXHXHXHXHXHXHXHXHXHXHX",
"HXHXHXHXHXHXHXHXHXHXHXHXHXHXHXHXGXGXGXHXHXDXsX5X-X*X*Xr.r.r.y.y.8.9.q.:X6X{.=.B m C C B C T.'.'.zXZXHXHXHXHXHXHXHXHXHXHXHXHXHXHX",
"HXHXHXHXHXHXHXHXHXHXHXHXHXHXHXHXHXHXHXDXnXsX3X>X*X*X*X-X-X*X*Xr.y.y.*X4XOXm.C m.[.oXeX<X~.P.(.8X|.zXHXHXHXHXHXHXHXHXHXHXHXHXHXHX",
"HXHXHXHXHXHXHXHXHXHXHXHXHXHXHXHXHXHXMXgX5X3X=X&X:X-X-X=X1X1X1X3X:X&X4XfX_.m m.iXbXvXmXDXNXrX}.`.Y.iXJXHXHXHXHXHXHXHXHXHXHXHXHXHX",
"HXHXHXHXHXHXHXHXHXHXHXHXHXHXHXHXHXMXgX5X6X>X>X>X4X2XOXXXXXXXXXXX2X2XdXwXm m.0XVXFXAXAXmXbXbXvX_. X}.cXHXHXFXHXHXHXHXHXHXHXHXHXHX",
"HXHXHXHXHXHXHXHXHXHXHXHXHXHXHXHXFXnXsX3X&X&X3X3X2XXX~ ! =.I.~.{.].oXuX[.B _.BXFX[.E.oXAXAXFXlX0X X].yXHXHXHXHXJXHXHXHXHXHXHXHXHX",
"HXHXHXHXHXHXHXHXHXHXHXHXHXHXHXHXmXgX4X=X$X6XsX,Xm.m m c.C c B P.].|.|.T.V rXNX[.v q r wXDXpXFX0X|.].wXDXHXHXHXHXHXHXHXHXHXHXHXHX",
"HXHXHXHXHXHXHXHXHXHXHXHXHXHXHXDXgXsX6X=X3XsX,XI.V m.'.wXtXuX{.V T.].|.(.V eXNX-.! 4 R ^.AXFXVXiX0X].wXHXHXHXHXHXHXHXHXHXHXHXHXHX",
"HXHXHXHXHXHXHXHXHXHXHXHXHXHXHXDXsX3X-X1XsXhXU.B (.0XVXFXAXDXDXNX~.Q.|.].V.wXDXU.v w :.XXDXVXBXkX@X].wXHXJXHXHXHXHXHXHXHXHXHXHXHX",
"HXHXHXHXHXHXHXHXHXHXHXHXHXHXHXnX5X&X3X1XhX,XV V 0XxXHXDXmXmXmXAXxX{.].].P.|.DX{.v =.! pXDXpXCXrX|.].rXHXHXHXHXHXHXHXHXHXHXHXHXHX",
"HXHXHXHXHXHXHXHXHXHXHXHXHXHXHXgX:X*X3X4XfX[.b ~.eXnXhX=.v m.wXFXBXwX8X XU.Q.NXmXaXiXaXAXDXNXeX<X{.Y.tXHXHXHXHXHXHXHXHXHXHXHXHXHX",
"HXHXHXHXHXHXHXHXHXHXHXHXHXHXSXhX:X*X1XfXbXU.C <XnXgX{.! v v -.mXFXkX}. X/.U.eXAXSXFXFXVXcXyXeX@X!.U.,XmXHXHXHXJXHXHXHXHXHXHXHXHX",
"HXHXHXHXHXHXGXHXGXHXGXSXSXDXSXjX>X$X.XfXpXY.! wXDXZXE.=.# W W.aXFXvX X{. XQ.@XKXBXBXBXBXbXlX0XW.&.<.W.hXFXHXHXHXDXHXHXHXHXFXHXDX",
"HXHXHXHXHXHXGXHXGXHXSXHXDXMXSX4X$X$Xb [.cXY.V eXDXDXoXC b ;..XfXvXyXtX XY.~.`.@XzXKXBXxXiX0X^.:.*.<.1.4XHXHXHXHXDXDXFXHXHXHXGXDX",
"HXHXHXHXHXGXHXHXHXHXDXHXMXNXhXjX7X>.-._.lX8Xm.wXKXMXSX{.!.~.xXVXbXtX<X_.U.].].].`.{.oX^.^.:.:.*.) O.<.%XMXHXHXHXDXHXHXHXHXHXHXHX",
"HXHXHXDXHXHXHXHXHXHXHXDXDXDXDXaX! b ^.P.0X8XY.].SXNXMXMXdXBXFXVXvXtX|.~.! c -.^.^.!.W.:.:.2.:.O.O.O.O.1.gXFXGXHXHXDXHXHXHXHXGXHX",
"DXDXGXDXHXDXHXHXHXHXDXFXDXDXjX-.a b U.V [.(.}.(.kXJXdXNXFXFXlXVXyXwX[.U.v @ q T &.*.~ ) *.O.O.O.[ +.o.<.sXSXHXHXHXDXHXHXHXHXHXHX",
"GXDXHXDXGXHXHXHXHXHXHXDXDXmXoXc b q ;.;.! ~.}.(.8XvXDXNXbXcXBXVXtX^.R.R r e 5 y H S F F G ] [ [ [ } ` +.3XnXHXHXHXHXDXHXHXHXHXHX",
"HXDXDXHXHXHXHXHXJXHXHXHXDXFXeX=.v 4 _ &.q R._._.oX<XjXdXdXKXBX8X[.W.:.t S F G G G G ] ] [ { [ [ } } ' +.e.nXHXHXHXDXHXHXHXHXHXHX",
"DXHXHXHXHXHXHXHXHXHXJXHXHXHXuXC t _ <.<.U E W.XX-.^.^.<XwXoXQ.!.:.:.U S Y G ] { ..{ { { { { [ | | | `  .1.gXFXHXHXDXDXHXDXHXHXHX",
"JXHXHXHXHXHXHXHXHXHXHXHXDXHXzX:.*X5.5.5.+.) *.<..X.X^._._.E.>.,.*.U F G ( { ' ' X.X... .[ ' ' ' ' }  . .2.gXHXHXHXGXHXDXDXHXHXHX",
"HXHXHXHXHXFXFXHXHXHXGXGXGXGXKXeX*Xr.6.3.7.$.<.<.*.,.W..X.XW.&._ _ G G ` [ ..X.X.X.X.X.X.....' ' }  .` o.<.<XDXHXHXHXHXDXMXDXHXHX",
"HXHXHXFXHXHXHXHXHXHXDXDXNXDXNX!.%X&Xr.6.9.9.6.t.<.*.Y S S U Y G ( ` `  .} ..X.X.@.%.$.$.@.X...} } ' ` O.&.;.KXHXHXHXHXHXMXDXHXHX",
"HXHXFXHXFXHXHXHXHXmXDXDXNXMXNX=.R.#X0.u.p.9.y.w.5.3.+.o.] G G G / / ` ` ' ..X.@.$.$.#.#.$.%.X.X.} '  .) t 7 jXDXHXHXHXHXMXMXHXHX",
"HXFXHXHXHXbXAXDXDXNXfXmXnXnXjX^.V T.#X7Xu.p.q.y.r.6.#.X.[ ' ] ] / / `  .X.@.#.#.#.4.#.4.#.$.%.@. .+.O.U w # <XMXHXFXHXHXnXMXHXHX",
"HXHXHXJXHXHXAXpXaXW.~ W.2XnXhXOXQ.V.^ >.#Xu.p.y.w.6.6.4.$.@...@.@.@.@.#.3.4.4.4.4.4.4.#.#.$.%.%.X.+.) r 4 > %XMXHXHXFXFXMXnXHXHX",
"GXGXGXNXDXAX,XR.r v E ~ P ~ 2XjX%X>.V.=.>.%Xp.p.w.6.w.6.6.6.4.4.5.w.5.6.8.6.4.4.4.$.4.$.#.#.%.%.@.+.t y > q !.gXHXHXFXHXnXnXHXHX",
"GXSXHXDXmXXXR r ~ T r K e e Q 2.0.0./.U.V.!.#Xp.q.y.w.w.8.w.6.6.w.w.w.6.6.8.4.4.7.7.7.9.4.4.7.+.+._ t # 4 b &.sXDXFXHXHXDXnXHXHX",
"GXDXAXVXiXE T +X2X+Xe 8 5 I I I 5.q.0./.=.B.;.%X$Xe.r.i.y.6.i.w.w.w.y.6.y.6.p.7.7.0.q.7.0.7.<.<.&.b q 4 t F +.0.mXFXVXHXHXSXHXHX",
"GXbXAXfX~ K Q .X:.~ K e Z I I D @.4.5.0./.Q.Q.!./.%X&X*Xu.i.*X>X&Xr.e.0.0.0.0.#X0.,.&.&.&.t t t N 0 7 r U G O.e.NXFXFXHXGXSXHXHX",
"DXDXVXOXE T J I I J K H J J J Z G 4.7.p.$X%X!.Q.:.@X,X%X%X%X>.#X/.]./.Q.;.^ ^ ^ ^ N N N x x N x 0 w q t ) G o.2.sXAXHXHXSXMXHXHX",
"DXnX[.T L Q J A A A L J I J J Z D 3.4.6.u.7X%X/.U.~.P.=.Q.;.T.P.B.V.S.V.N.N.l h.h.l l h s.l.h.d . > q P F F <.0.jXmXDXDXDXMXDXMX",
"DXpX! r K H J A J A J J J J J 5 D 5.3.5.r.*X&X%X#X;.0 s V.V.S.C.S.S.A.S.A.M.N.l.k.f.f.f.j.s.s.u + w r &._ y *.0.4XnXNXSXSXDXnXDX",
"HXfX-.T T e H J J J J J A Z Z 5 D 3.5.5.w.i.w.u.$X!.x l M.N.D.D.C.M.h.d.f.f.f.f.f.a.k.d.f.a.a.g + w r y y X 4 y <XnXNXSXSXHXDXDX",
"DXFXOXE T L I Q I I T J e 8 H 5 D @.3.5.5.w.9.u.7X#XV.N.S.M.A.Z.Z.C.C.z.v.A.l.d.z.j.k.h g.j h u + > w X X X O O b MXSXGXGXHXHXHX",
"HXAXbXaXE K Q I T T Q K e 8 e e S O.3.4.4.8.9.p.$X!.B.N.M.H.A.Z.C.G.D.D.D.H.Z.A.v.j.g.a.g.z u u + + # O 7 : o . ; KXGXGXHXHXHXFX",
"HXHXDXmXOXR e E T T ~ r 6 6 6 r P F @.4.4.4.9.u.7X`.).L.S.D.D.Z.C.Z.D.D.J.L.L.A.C.l.d.s.l k z u $ < @ . & a % . c KXGXGXGXHXFXHX",
"JXHXHXDXnX2X-.T E v 6 O @ @ @ 3 8 J ) $.4.9.q.>X<X'.).9XF.D.J.D.v.Z.D.D.J.D.Z.Z.M.b.l.h h k z - % c # . p & & p @XSXSXHXHXHXHXFX",
"GXHXHXSXDXnXaX^.7 : o : 7 : : O 7 8 P *.1.0.0.7X<XT.G.9XL.J.J.J.A.S.D.D.Z.C.C.k.C.l.h.j l k z = 1 ;   o & & (.BXSXSXKXGXHXFXHXHX",
"GXGXHXHXDXDXDXfX7 o : < 7 0 2   9 6 8 T ,.,././.Q.P.G.9XK.D.J.D.A.A.A.Z.D.C.C.v.C.h.s.d.z.s.h z 1 p ;   % m HXGXSXgXMXSXJXHXHXHX",
"HXFXHXHXHXHXDXcXB ; 2 ;   ; < O 3 4 7 c c.c.B.c.B.B.K.K.F.F.G.Z.C.v.d.A.b.k.d.d.b.a.a.j.b.a.a.k u x 1 + d dXDXKXSXDXDXDXHXHXSXHX",
"HXHXHXSXSXHXHXGX_.< < < o   . @ 3 4 7 0 n.n.h.g.G.K.9XK.F.D.S.b.C.C.M.d.d.f.f.a.a.a.k.d.j.a.a.k f d 1 1 x GXHXHXDXDXDXZXHXHXNXHX",
"VXFXHXHXHXHXHXHXHXY.a & : o . O 3 3 4 > d h.z.l.Z.J.K.J.S.S.Z.J.M.N.d.N.k.C.C.A.d.l.C.j.b.j.d.h h d d - d GXGXHXHXDXGXJXHXFXHXHX",
"HXFXFXDXHXHXJXHXVXHX[.< o o X 3 3 9 # # 1 N.M.Z.C.C.b.C.Z.S.Z.J.A.M.l.d.l.A.b.d.k.d.d.f.k.g.a.k g f i 1 T.GXBXHXHXHXHXFXHXJXHXHX",
"HXHXHXHXHXHXHXHXDXFXmX! 4 9 3 3 3 6 3 : 2 i x.l.k.d.b.j.v.C.v.D.C.M.Z.z.Z.A.k.l.k.k.z.j.j a.h.g.M s d d rXGXGXHXHXHXHXHXHXHXHXHX",
"HXHXHXHXHXHXHXHXDXmXmXOXr 8 r 4 4 3 X 7 B x n g.g.s.l.d.j.j.j.j.j.z.C.C.C.C.d.M.k.l.k.j.g.g.z.z.M g = N BXGXGXHXHXHXHXHXHXHXHXHX",
"HXHXHXHXHXHXHXHXHXDXbX:.T v r W T 4 6 7 c B s n g.g.s.j a.k.z.a.j g.h g.k.z.l l l.g.j a.j j j j x.s x qXGXGXHXSXHXHXHXHXHXHXHXHX",
"HXHXHXHXHXHXHXHXDXDXmX! b b 8 4X,Xr 6 q c |.Y.N s g g l n n n.n.j M g g.g.l l l j j g.g.M j j x.s s '.GXGXHXFXHXHXHXHXDXHXHXGXHX",
"HXHXHXHXHXHXHXHXDXDXDX[.b b ~ mXaXE v 7 v yXZXrXV.x i i g k n n M n g M M l M M M j j g f f f s n |.GXGXGXHXAXHXHXDXHXHXHXHXHXHX",
"HXHXHXHXHXHXHXHXHXFXAXfX^.R.fXmXmXXXv v R.mXHXJXHXkXP.= $ u u = s d n s f s g d i i s s u f x.B.rXHXHXHXHXJXHXAXHXHXHXHXHXHXHXHX",
"HXHXHXHXHXHXHXHXHXHXHXHXDXmXAXmXMXmXaXaXAXDXDXFXCXHXBXs - = u u % x 8XV.% - = = i % i V.8XzXGXCXGXGXCXHXHXAXHXHXDXHXHXHXHXHXHXGX",
"HXHXHXHXHXHXHXHXHXJXHXAXAXHXmXFXHXFXFXDXHXAXHXAXFXHXGXN x i - u % V.GX8X% - 1 = - = (.HXGXCXGXHXGXHXHXHXAXHXNXDXHXHXHXHXHXHXHXHX",
"HXHXHXHXHXHXHXHXHXHXHXHXHXHXHXHXHXHXJXHXHXHXHXHXHXJXJX'.x s - u + zXGXzX1 1 1 , = , vXGXCXGXCXFXSXSXDXAXAXAXAXAXmXZXAXFXHXHXHXHX",
"HXHXHXHXHXHXHXHXHXHXHXHXHXHXHXHXHXHXHXHXHXHXHXHXHXHXHXT., % = % . qXCX|.* + , * $ P.CXzXvXyXvXxXxXxXxXvXcXcXZXNXZXmXSXJXJXDXHXGX",
"HXHXHXHXHXHXHXHXHXHXHXHXHXHXHXHXGXGXGXHXJXHXJXCXCXCXT.. % . . . d @XeXY.;   + .   T.zXwXtXwXuXeXyXpXpXxXdXxXcXcXKXbXZXZXSXJXGXJX",
"HXHXHXHXHXHXHXHXHXHXHXHXHXHXHXHXGXGXGXZXcXxXuXuXuX|.c = * *   ; P.[.].P.x 2 , *   2 `.{.|.wXwXwXwXrXtXtXuXyXyXdXvXvXvXCXZXZXJXGX",
"HXHXHXHXHXHXHXHXHXHXHXHXHXHXHXHXDXGXBXzXuXwX8X|. XY.< p ; *   c ! P.I.V.B * * , < . V }.}.{._. X|.|.wXwXrXuXyXzXvXcXcXZXAXJXHXHX",
"HXHXHXHXHXHXHXHXHXHXHXHXHXHXHXHXHXSXxXuXwX8X|.}.(.T.  . ;     c V V P.V c < * ; ;   x _. X{.oXiXiXtXyXzXxXBXCXZXHXGXHXHXHXHXHXHX",
"HXHXHXHXHXHXHXHXHXHXHXFXHXHXHXHXHXmXcXdXuXuXuXuXxXwX|.~.Y.U.|.oXiXtXyXiXrXwX|. X}.8XwXxXvXxXcXbXZXGXJXGXHXHXGXHXHXHXHXHXHXHXHXHX",
"HXHXHXHXHXHXHXHXHXHXHXHXJXHXHXHXDXmXDXFXHXHXHXHXHXHXHXbXDXDXmXDXSXJXGXZXJXHXGXHXHXFXHXHXVXFXHXHXGXGXHXHXGXHXHXHXHXGXHXHXHXHXHXDX"
};
